:FULLY-SPECIFIED
:FORCE-ALL-JOINTS-BE-3DOF
:DEGREES
815
root 2.15592 16.617 22.7622 2.29548 9.07199 355.518
lfemur -39.3369 0.138337 -7.14198
ltibia 37.4695 0 0
lfoot -10.1713 -2.97995 0
ltoes 8.83136 0 0
rfemur -4.52883 -1.63536 17.2718
rtibia 37.9749 0 0
rfoot -15.0708 -6.05168 0
rtoes -23.2248 0 0
lowerback 1.1925 5.13513 4.03962
upperback -0.188557 6.91328 -0.486938
thorax -0.344603 3.44761 -2.80585
lowerneck -6.07307 -2.6461 2.37044
upperneck 0.8801 -3.73612 1.57765
head 1.30534 -1.80919 -0.0232741
lclavicle 9.56921e-14 -1.76982e-14 0
lhumerus -54.4297 -6.7759 90.8355
lradius 57.1633 0 0
lwrist 21.1108 0 0
lhand -10.5078 3.87481 0
lfingers 7.12502 0 0
lthumb 15.4916 33.232 0
rclavicle 9.56921e-14 -1.76982e-14 0
rhumerus -33.213 41.0182 -106.588
rradius 66.6145 0 0
rwrist 2.93349 0 0
rhand -19.7236 -26.7883 0
rfingers 7.12502 0 0
rthumb 6.60568 -776.624 0
816
root 2.20986 16.6006 22.9375 2.07748 8.54744 355.501
lfemur -38.9472 0.0815714 -7.1479
ltibia 37.2487 0 0
lfoot -9.79161 -3.02318 0
ltoes 8.36776 0 0
rfemur -4.34581 -1.87953 16.841
rtibia 38.8468 0 0
rfoot -14.0404 -5.48346 0
rtoes -23.7475 0 0
lowerback 1.05304 5.1754 3.97442
upperback -0.224344 6.96182 -0.420762
thorax -0.317448 3.47203 -2.69054
lowerneck -6.06922 -2.66094 2.41896
upperneck 1.18611 -3.76659 1.55948
head 1.40381 -1.81917 -0.0416553
lclavicle 8.70546e-14 -1.73263e-14 0
lhumerus -54.4905 -6.60584 90.6285
lradius 56.9259 0 0
lwrist 20.8903 0 0
lhand -10.2176 3.94946 0
lfingers 7.12502 0 0
lthumb 15.7709 33.2815 0
rclavicle 8.70546e-14 -1.73263e-14 0
rhumerus -33.21 40.4877 -105.588
rradius 66.2729 0 0
rwrist 3.01509 0 0
rhand -20.0397 -26.5769 0
rfingers 7.12502 0 0
rthumb 6.30045 -776.419 0
817
root 2.2638 16.5842 23.1128 1.85948 8.02289 355.484
lfemur -38.5575 0.0248058 -7.15382
ltibia 37.0279 0 0
lfoot -9.41193 -3.06642 0
ltoes 7.90415 0 0
rfemur -4.16278 -2.1237 16.4101
rtibia 39.7187 0 0
rfoot -13.01 -4.91523 0
rtoes -24.2703 0 0
lowerback 0.913576 5.21567 3.90921
upperback -0.260131 7.01036 -0.354585
thorax -0.290294 3.49644 -2.57523
lowerneck -6.06536 -2.67578 2.46747
upperneck 1.49212 -3.79705 1.5413
head 1.50228 -1.82915 -0.0600366
lclavicle 7.84172e-14 -1.69544e-14 0
lhumerus -54.5514 -6.43579 90.4216
lradius 56.6884 0 0
lwrist 20.6699 0 0
lhand -9.92732 4.02411 0
lfingers 7.12502 0 0
lthumb 16.0502 33.331 0
rclavicle 7.84172e-14 -1.69544e-14 0
rhumerus -33.2071 39.9573 -104.587
rradius 65.9312 0 0
rwrist 3.0967 0 0
rhand -20.3558 -26.3655 0
rfingers 7.12502 0 0
rthumb 5.99522 -776.214 0
818
root 2.31774 16.5678 23.2881 1.64148 7.49834 355.467
lfemur -38.1678 -0.0319597 -7.15973
ltibia 36.8071 0 0
lfoot -9.03224 -3.10965 0
ltoes 7.44055 0 0
rfemur -3.97975 -2.36787 15.9792
rtibia 40.5906 0 0
rfoot -11.9796 -4.347 0
rtoes -24.793 0 0
lowerback 0.774117 5.25594 3.84401
upperback -0.295918 7.0589 -0.288409
thorax -0.263139 3.52086 -2.45992
lowerneck -6.0615 -2.69062 2.51599
upperneck 1.79813 -3.82752 1.52313
head 1.60075 -1.83913 -0.0784178
lclavicle 6.97797e-14 -1.65825e-14 0
lhumerus -54.6122 -6.26574 90.2146
lradius 56.451 0 0
lwrist 20.4494 0 0
lhand -9.63707 4.09876 0
lfingers 7.12502 0 0
lthumb 16.3295 33.3805 0
rclavicle 6.97797e-14 -1.65825e-14 0
rhumerus -33.2041 39.4268 -103.586
rradius 65.5895 0 0
rwrist 3.17831 0 0
rhand -20.6719 -26.1541 0
rfingers 7.12502 0 0
rthumb 5.68998 -776.009 0
819
root 2.37168 16.5514 23.4634 1.42348 6.97379 355.451
lfemur -37.7781 -0.0887252 -7.16565
ltibia 36.5863 0 0
lfoot -8.65255 -3.15288 0
ltoes 6.97695 0 0
rfemur -3.79672 -2.61204 15.5484
rtibia 41.4625 0 0
rfoot -10.9492 -3.77877 0
rtoes -25.3158 0 0
lowerback 0.634658 5.29621 3.7788
upperback -0.331705 7.10744 -0.222233
thorax -0.235985 3.54528 -2.3446
lowerneck -6.05764 -2.70546 2.56451
upperneck 2.10413 -3.85799 1.50496
head 1.69923 -1.84911 -0.0967991
lclavicle 6.11422e-14 -1.62106e-14 0
lhumerus -54.6731 -6.09569 90.0076
lradius 56.2135 0 0
lwrist 20.2289 0 0
lhand -9.34682 4.17342 0
lfingers 7.12502 0 0
lthumb 16.6087 33.43 0
rclavicle 6.11422e-14 -1.62106e-14 0
rhumerus -33.2012 38.8964 -102.586
rradius 65.2478 0 0
rwrist 3.25992 0 0
rhand -20.9881 -25.9427 0
rfingers 7.12502 0 0
rthumb 5.38475 -775.803 0
820
root 2.42562 16.535 23.6387 1.20547 6.44924 355.434
lfemur -37.3885 -0.145491 -7.17157
ltibia 36.3654 0 0
lfoot -8.27286 -3.19611 0
ltoes 6.51334 0 0
rfemur -3.6137 -2.85621 15.1175
rtibia 42.3344 0 0
rfoot -9.91879 -3.21055 0
rtoes -25.8385 0 0
lowerback 0.495198 5.33648 3.7136
upperback -0.367492 7.15599 -0.156056
thorax -0.20883 3.5697 -2.22929
lowerneck -6.05379 -2.72031 2.61303
upperneck 2.41014 -3.88846 1.48679
head 1.7977 -1.85908 -0.11518
lclavicle 5.25047e-14 -1.58386e-14 0
lhumerus -54.7339 -5.92563 89.8007
lradius 55.976 0 0
lwrist 20.0085 0 0
lhand -9.05657 4.24807 0
lfingers 7.12502 0 0
lthumb 16.888 33.4795 0
rclavicle 5.25047e-14 -1.58386e-14 0
rhumerus -33.1982 38.366 -101.585
rradius 64.9062 0 0
rwrist 3.34152 0 0
rhand -21.3042 -25.7313 0
rfingers 7.12502 0 0
rthumb 5.07952 -775.598 0
821
root 2.47956 16.5186 23.814 0.987473 5.92469 355.417
lfemur -36.9988 -0.202256 -7.17748
ltibia 36.1446 0 0
lfoot -7.89318 -3.23934 0
ltoes 6.04974 0 0
rfemur -3.43067 -3.10038 14.6866
rtibia 43.2063 0 0
rfoot -8.88838 -2.64232 0
rtoes -26.3613 0 0
lowerback 0.355739 5.37675 3.6484
upperback -0.403279 7.20453 -0.0898797
thorax -0.181676 3.59412 -2.11398
lowerneck -6.04993 -2.73515 2.66155
upperneck 2.71615 -3.91893 1.46862
head 1.89617 -1.86906 -0.133562
lclavicle 4.38672e-14 -1.54667e-14 0
lhumerus -54.7947 -5.75558 89.5937
lradius 55.7386 0 0
lwrist 19.788 0 0
lhand -8.76632 4.32272 0
lfingers 7.12502 0 0
lthumb 17.1673 33.529 0
rclavicle 4.38672e-14 -1.54667e-14 0
rhumerus -33.1952 37.8355 -100.584
rradius 64.5645 0 0
rwrist 3.42313 0 0
rhand -21.6203 -25.5199 0
rfingers 7.12502 0 0
rthumb 4.77428 -775.393 0
822
root 2.5335 16.5022 23.9893 0.769471 5.40014 355.4
lfemur -36.6091 -0.259022 -7.1834
ltibia 35.9238 0 0
lfoot -7.51349 -3.28257 0
ltoes 5.58613 0 0
rfemur -3.24764 -3.34455 14.2558
rtibia 44.0782 0 0
rfoot -7.85797 -2.07409 0
rtoes -26.884 0 0
lowerback 0.21628 5.41702 3.58319
upperback -0.439067 7.25307 -0.0237032
thorax -0.154521 3.61854 -1.99867
lowerneck -6.04607 -2.74999 2.71007
upperneck 3.02216 -3.9494 1.45045
head 1.99464 -1.87904 -0.151943
lclavicle 3.52297e-14 -1.50948e-14 0
lhumerus -54.8556 -5.58553 89.3867
lradius 55.5011 0 0
lwrist 19.5675 0 0
lhand -8.47607 4.39737 0
lfingers 7.12502 0 0
lthumb 17.4466 33.5785 0
rclavicle 3.52297e-14 -1.50948e-14 0
rhumerus -33.1923 37.3051 -99.5836
rradius 64.2228 0 0
rwrist 3.50474 0 0
rhand -21.9364 -25.3085 0
rfingers 7.12502 0 0
rthumb 4.46905 -775.188 0
823
root 2.58743 16.4857 24.1645 0.551469 4.87558 355.383
lfemur -36.2194 -0.315787 -7.18932
ltibia 35.703 0 0
lfoot -7.1338 -3.32581 0
ltoes 5.12253 0 0
rfemur -3.06461 -3.58871 13.8249
rtibia 44.9502 0 0
rfoot -6.82756 -1.50587 0
rtoes -27.4068 0 0
lowerback 0.0768203 5.4573 3.51799
upperback -0.474854 7.30161 0.0424732
thorax -0.127367 3.64295 -1.88336
lowerneck -6.04222 -2.76483 2.75858
upperneck 3.32817 -3.97986 1.43227
head 2.09312 -1.88902 -0.170324
lclavicle 2.65923e-14 -1.47229e-14 0
lhumerus -54.9164 -5.41547 89.1798
lradius 55.2637 0 0
lwrist 19.3471 0 0
lhand -8.18583 4.47203 0
lfingers 7.12502 0 0
lthumb 17.7259 33.6281 0
rclavicle 2.65923e-14 -1.47229e-14 0
rhumerus -33.1893 36.7746 -98.583
rradius 63.8812 0 0
rwrist 3.58634 0 0
rhand -22.2526 -25.0972 0
rfingers 7.12502 0 0
rthumb 4.16382 -774.983 0
824
root 2.64137 16.4693 24.3398 0.333467 4.35103 355.366
lfemur -35.8297 -0.372553 -7.19524
ltibia 35.4822 0 0
lfoot -6.75411 -3.36904 0
ltoes 4.65892 0 0
rfemur -2.88159 -3.83288 13.394
rtibia 45.8221 0 0
rfoot -5.79715 -0.937639 0
rtoes -27.9295 0 0
lowerback -0.062639 5.49757 3.45278
upperback -0.510641 7.35015 0.10865
thorax -0.100212 3.66737 -1.76805
lowerneck -6.03836 -2.77967 2.8071
upperneck 3.63418 -4.01033 1.4141
head 2.19159 -1.899 -0.188705
lclavicle 1.79548e-14 -1.4351e-14 0
lhumerus -54.9773 -5.24542 88.9728
lradius 55.0262 0 0
lwrist 19.1266 0 0
lhand -7.89558 4.54668 0
lfingers 7.12502 0 0
lthumb 18.0052 33.6776 0
rclavicle 1.79548e-14 -1.4351e-14 0
rhumerus -33.1864 36.2442 -97.5823
rradius 63.5395 0 0
rwrist 3.66795 0 0
rhand -22.5687 -24.8858 0
rfingers 7.12502 0 0
rthumb 3.85858 -774.778 0
